# xmcd CD database file
#
# Track frame offsets:
#	150
#	20185
#	47667
#	70896
#	88937
#	126050
#	153544
#	168963
#	185199
#
# Disc length: 2947 seconds
#
# Revision: 0
# Processed by: cddbd v1.4PL0 Copyright (c) Steve Scherf et al.
# Submitted via: CDex 1.51
#
DISCID=7e0b8109
DTITLE=Foxy Moon Baby - Foxy Moon Baby
DYEAR=2003
DGENRE=Jazz
TTITLE0=Canvas
TTITLE1=Caballos
TTITLE2=Table For One
TTITLE3=Marshmallow
TTITLE4=Riversong
TTITLE5=Pantomime Gestures
TTITLE6=Repercussions
TTITLE7=Without You
TTITLE8=Extravaganza
EXTD=YEAR: 2003
EXTT0=
EXTT1=
EXTT2=
EXTT3=
EXTT4=
EXTT5=
EXTT6=
EXTT7=
EXTT8=
PLAYORDER=
